<svg width="1542.168" height="375.808" viewBox="0 0 1542.168 375.808" xmlns="http://www.w3.org/2000/svg">
    <!-- Generated using https://danmarshall.github.io/google-font-to-svg-path/ font-size 512	-->
    <g id="svgGroup" stroke-linecap="round" fill-rule="evenodd" font-size="9pt" stroke="#006a6a" stroke-width="0.25mm" fill="#006a6a" style="stroke:#006a6a;stroke-width:0.25mm;fill:#006a6a">
        <path d="M 0 158.208 L 0 116.736 L 46.08 116.736 L 56.32 56.832 L 104.448 46.08 L 104.448 116.736 L 167.424 116.736 L 160.256 158.208 L 104.448 158.208 L 104.448 309.76 A 38.333 38.333 0 0 0 104.842 315.48 Q 105.943 322.753 110.127 325.953 A 10.977 10.977 0 0 0 111.616 326.912 A 32.745 32.745 0 0 0 126.137 330.729 A 38.668 38.668 0 0 0 127.488 330.752 Q 134.656 330.752 141.824 329.728 A 124.535 124.535 0 0 0 148.508 328.596 Q 151.713 327.958 154.535 327.192 A 76.37 76.37 0 0 0 154.624 327.168 A 140.049 140.049 0 0 0 167.412 323.588 A 158.127 158.127 0 0 0 167.424 323.584 L 177.152 361.984 L 172.544 363.52 A 46.596 46.596 0 0 1 169.424 364.759 Q 166.248 365.902 161.811 367.12 A 182.205 182.205 0 0 1 158.976 367.872 Q 150.016 370.176 137.984 371.968 Q 125.952 373.76 111.616 373.76 Q 97.28 373.76 85.248 370.688 A 58.714 58.714 0 0 1 72.133 365.686 A 49.986 49.986 0 0 1 64.512 360.704 A 46.476 46.476 0 0 1 51.408 344.04 A 54.199 54.199 0 0 1 50.944 343.04 Q 46.08 332.288 46.08 316.416 L 46.08 158.208 L 0 158.208 Z" id="0" vector-effect="non-scaling-stroke"/>
        <path d="M 275.968 231.424 L 275.968 371.712 L 217.6 371.712 L 217.6 242.688 A 382.065 382.065 0 0 0 217.03 221.157 Q 216.461 211.108 215.325 202.443 A 176.089 176.089 0 0 0 213.504 191.232 Q 209.408 170.496 204.8 157.696 Q 199.168 142.848 192.512 133.632 L 238.592 115.2 Q 243.2 120.832 248.32 129.024 Q 251.872 135.24 255.424 143.381 A 214.459 214.459 0 0 1 256.512 145.92 Q 260.608 155.648 263.168 168.96 Q 271.046 146.115 284.377 133.118 A 60.215 60.215 0 0 1 292.864 126.208 Q 312.32 113.152 336.896 113.152 A 87.149 87.149 0 0 1 352.027 114.423 A 75.022 75.022 0 0 1 358.912 115.968 A 1368.46 1368.46 0 0 1 361.198 116.599 Q 368.984 118.754 368.651 118.784 A 0.124 0.124 0 0 1 368.64 118.784 L 352.256 175.616 A 0.064 0.064 0 0 0 352.288 175.61 Q 352.477 175.488 346.368 172.8 Q 340.635 170.277 329.765 170.015 A 107.516 107.516 0 0 0 327.168 169.984 Q 317.952 169.984 308.736 174.592 Q 299.52 179.2 292.352 187.136 A 61.21 61.21 0 0 0 283.711 199.611 A 75.441 75.441 0 0 0 280.576 206.336 Q 275.968 217.6 275.968 231.424 Z" id="1" vector-effect="non-scaling-stroke"/>
        <path d="M 592.384 127.488 L 592.384 248.32 A 407.473 407.473 0 0 0 592.918 269.851 Q 593.817 286.775 596.224 299.776 A 332.994 332.994 0 0 0 598.955 313.094 Q 600.301 319.003 601.731 324.058 A 139.464 139.464 0 0 0 604.672 333.312 Q 608.658 344.183 613.157 351.72 A 59.579 59.579 0 0 0 616.96 357.376 L 571.392 375.808 Q 564.736 369.152 559.104 359.936 Q 554.496 351.744 550.4 340.224 Q 546.713 329.854 545.515 315.956 A 145.414 145.414 0 0 1 545.28 312.832 Q 536.576 343.552 517.376 359.168 Q 500.426 372.954 472.902 374.57 A 127.916 127.916 0 0 1 465.408 374.784 A 108.731 108.731 0 0 1 444.914 372.944 A 79.994 79.994 0 0 1 423.68 365.824 Q 406.016 356.864 394.24 340.224 A 103.756 103.756 0 0 1 382.422 318.027 A 135.965 135.965 0 0 1 376.832 300.032 Q 371.2 276.48 371.2 247.808 Q 371.2 218.624 380.16 193.792 A 134.166 134.166 0 0 1 395.436 163.544 A 118.568 118.568 0 0 1 405.248 151.04 Q 421.376 133.12 443.904 122.88 Q 466.432 112.64 493.568 112.64 Q 508.928 112.64 525.568 114.944 Q 542.208 117.248 556.544 119.808 Q 567.52 121.768 575.945 123.578 A 332.421 332.421 0 0 1 580.864 124.672 Q 590.848 126.976 592.384 127.488 Z M 534.016 232.96 L 534.016 159.232 Q 528.896 157.696 518.656 155.648 Q 509.316 153.78 501.68 153.616 A 67.731 67.731 0 0 0 500.224 153.6 Q 485.012 153.6 474.026 157.669 A 47.717 47.717 0 0 0 468.224 160.256 Q 455.68 166.912 448 178.688 Q 440.32 190.464 437.248 206.848 Q 434.176 223.232 434.176 242.688 Q 434.176 260.608 435.2 276.992 Q 436.224 293.376 440.576 306.176 Q 444.928 318.976 453.12 326.4 Q 461.216 333.737 474.813 333.823 A 51.112 51.112 0 0 0 475.136 333.824 Q 487.936 333.824 498.688 325.12 Q 509.44 316.416 517.376 302.336 Q 525.312 288.256 529.664 270.08 Q 534.016 251.904 534.016 232.96 Z" id="2" vector-effect="non-scaling-stroke"/>
        <path d="M 658.944 315.904 L 658.944 116.736 L 717.312 116.736 L 717.312 310.784 A 60.528 60.528 0 0 0 717.522 316.038 Q 717.969 321.146 719.368 324.216 A 9.925 9.925 0 0 0 720.896 326.656 Q 724.48 330.752 731.648 330.752 L 736 330.752 Q 738.304 330.752 740.352 330.24 Q 742.4 330.24 744.96 329.728 L 751.104 366.592 Q 748.364 368.157 744.428 369.424 A 58.934 58.934 0 0 1 741.888 370.176 Q 737.28 371.712 730.368 372.736 A 90.863 90.863 0 0 1 723.023 373.503 Q 719.113 373.76 714.752 373.76 A 73.058 73.058 0 0 1 698.322 372.024 Q 686.313 369.253 677.813 362.06 A 44.643 44.643 0 0 1 673.28 357.632 A 55.681 55.681 0 0 1 660.208 330.269 A 78.192 78.192 0 0 1 658.944 315.904 Z M 689.152 3.072 Q 705.536 3.072 714.24 12.8 Q 722.944 22.528 722.944 37.888 Q 722.944 53.248 713.984 63.488 Q 705.024 73.728 687.616 73.728 Q 671.232 73.728 662.272 63.744 A 34.799 34.799 0 0 1 653.339 40.979 A 44.765 44.765 0 0 1 653.312 39.424 A 46.116 46.116 0 0 1 654.791 27.458 A 34.875 34.875 0 0 1 662.272 13.312 Q 670.55 3.852 686.474 3.131 A 59.251 59.251 0 0 1 689.152 3.072 Z" id="3" vector-effect="non-scaling-stroke"/>
        <path d="M 789.504 316.416 L 789.504 10.752 L 847.872 0 L 847.872 310.784 Q 847.872 320.615 851.084 325.45 A 11.118 11.118 0 0 0 852.48 327.168 A 14.818 14.818 0 0 0 858.852 330.862 Q 861.15 331.548 863.905 331.719 A 30.409 30.409 0 0 0 865.792 331.776 Q 870.912 331.776 875.776 331.264 Q 880.64 330.752 884.736 329.728 Q 889.344 328.704 892.928 327.68 L 900.096 364.544 Q 893.44 367.104 885.248 369.152 Q 879.088 370.912 871.037 372.105 A 166.728 166.728 0 0 1 868.352 372.48 A 142.69 142.69 0 0 1 858.327 373.42 Q 852.672 373.76 846.336 373.76 A 83.803 83.803 0 0 1 830.362 372.339 Q 813.048 368.972 803.328 357.632 A 56.404 56.404 0 0 1 790.722 330.522 A 78.314 78.314 0 0 1 789.504 316.416 Z" id="4" vector-effect="non-scaling-stroke"/>
        <path d="M 1139.2 127.488 L 1139.2 248.32 A 407.473 407.473 0 0 0 1139.734 269.851 Q 1140.633 286.775 1143.04 299.776 A 332.994 332.994 0 0 0 1145.771 313.094 Q 1147.117 319.003 1148.547 324.058 A 139.464 139.464 0 0 0 1151.488 333.312 Q 1155.474 344.183 1159.973 351.72 A 59.579 59.579 0 0 0 1163.776 357.376 L 1118.208 375.808 Q 1111.552 369.152 1105.92 359.936 Q 1101.312 351.744 1097.216 340.224 Q 1093.529 329.854 1092.331 315.956 A 145.414 145.414 0 0 1 1092.096 312.832 Q 1083.392 343.552 1064.192 359.168 Q 1047.242 372.954 1019.718 374.57 A 127.916 127.916 0 0 1 1012.224 374.784 A 108.731 108.731 0 0 1 991.73 372.944 A 79.994 79.994 0 0 1 970.496 365.824 Q 952.832 356.864 941.056 340.224 A 103.756 103.756 0 0 1 929.238 318.027 A 135.965 135.965 0 0 1 923.648 300.032 Q 918.016 276.48 918.016 247.808 Q 918.016 218.624 926.976 193.792 A 134.166 134.166 0 0 1 942.252 163.544 A 118.568 118.568 0 0 1 952.064 151.04 Q 968.192 133.12 990.72 122.88 Q 1013.248 112.64 1040.384 112.64 Q 1055.744 112.64 1072.384 114.944 Q 1089.024 117.248 1103.36 119.808 Q 1114.336 121.768 1122.761 123.578 A 332.421 332.421 0 0 1 1127.68 124.672 Q 1137.664 126.976 1139.2 127.488 Z M 1080.832 232.96 L 1080.832 159.232 Q 1075.712 157.696 1065.472 155.648 Q 1056.132 153.78 1048.496 153.616 A 67.731 67.731 0 0 0 1047.04 153.6 Q 1031.828 153.6 1020.842 157.669 A 47.717 47.717 0 0 0 1015.04 160.256 Q 1002.496 166.912 994.816 178.688 Q 987.136 190.464 984.064 206.848 Q 980.992 223.232 980.992 242.688 Q 980.992 260.608 982.016 276.992 Q 983.04 293.376 987.392 306.176 Q 991.744 318.976 999.936 326.4 Q 1008.032 333.737 1021.629 333.823 A 51.112 51.112 0 0 0 1021.952 333.824 Q 1034.752 333.824 1045.504 325.12 Q 1056.256 316.416 1064.192 302.336 Q 1072.128 288.256 1076.48 270.08 Q 1080.832 251.904 1080.832 232.96 Z" id="5" vector-effect="non-scaling-stroke"/>
        <path d="M 1260.544 231.424 L 1260.544 371.712 L 1202.176 371.712 L 1202.176 242.688 A 382.065 382.065 0 0 0 1201.606 221.157 Q 1201.037 211.108 1199.901 202.443 A 176.089 176.089 0 0 0 1198.08 191.232 Q 1193.984 170.496 1189.376 157.696 Q 1183.744 142.848 1177.088 133.632 L 1223.168 115.2 Q 1227.776 120.832 1232.896 129.024 Q 1236.448 135.24 1240 143.381 A 214.459 214.459 0 0 1 1241.088 145.92 Q 1245.184 155.648 1247.744 168.96 Q 1255.622 146.115 1268.953 133.118 A 60.215 60.215 0 0 1 1277.44 126.208 Q 1296.896 113.152 1321.472 113.152 A 87.149 87.149 0 0 1 1336.603 114.423 A 75.022 75.022 0 0 1 1343.488 115.968 A 1368.46 1368.46 0 0 1 1345.774 116.599 Q 1353.56 118.754 1353.227 118.784 A 0.124 0.124 0 0 1 1353.216 118.784 L 1336.832 175.616 A 0.064 0.064 0 0 0 1336.864 175.61 Q 1337.053 175.488 1330.944 172.8 Q 1325.211 170.277 1314.341 170.015 A 107.516 107.516 0 0 0 1311.744 169.984 Q 1302.528 169.984 1293.312 174.592 Q 1284.096 179.2 1276.928 187.136 A 61.21 61.21 0 0 0 1268.287 199.611 A 75.441 75.441 0 0 0 1265.152 206.336 Q 1260.544 217.6 1260.544 231.424 Z" id="6" vector-effect="non-scaling-stroke"/>
        <path d="M 1449.472 231.424 L 1449.472 371.712 L 1391.104 371.712 L 1391.104 242.688 A 382.065 382.065 0 0 0 1390.534 221.157 Q 1389.965 211.108 1388.829 202.443 A 176.089 176.089 0 0 0 1387.008 191.232 Q 1382.912 170.496 1378.304 157.696 Q 1372.672 142.848 1366.016 133.632 L 1412.096 115.2 Q 1416.704 120.832 1421.824 129.024 Q 1425.376 135.24 1428.928 143.381 A 214.459 214.459 0 0 1 1430.016 145.92 Q 1434.112 155.648 1436.672 168.96 Q 1444.55 146.115 1457.881 133.118 A 60.215 60.215 0 0 1 1466.368 126.208 Q 1485.824 113.152 1510.4 113.152 A 87.149 87.149 0 0 1 1525.531 114.423 A 75.022 75.022 0 0 1 1532.416 115.968 A 1368.46 1368.46 0 0 1 1534.702 116.599 Q 1542.488 118.754 1542.155 118.784 A 0.124 0.124 0 0 1 1542.144 118.784 L 1525.76 175.616 A 0.064 0.064 0 0 0 1525.792 175.61 Q 1525.981 175.488 1519.872 172.8 Q 1514.139 170.277 1503.269 170.015 A 107.516 107.516 0 0 0 1500.672 169.984 Q 1491.456 169.984 1482.24 174.592 Q 1473.024 179.2 1465.856 187.136 A 61.21 61.21 0 0 0 1457.215 199.611 A 75.441 75.441 0 0 0 1454.08 206.336 Q 1449.472 217.6 1449.472 231.424 Z" id="7" vector-effect="non-scaling-stroke"/>
    </g>
</svg>